solid Arm
facet normal -1.0 -3.1299912499372606e-16 -4.1349085757280775e-16
  outer loop
    vertex -5.814345999999947 5.9999999999999565 126.07143493661168
    vertex -5.8143459999999525 -6.000000000000047 138.0714349366117
    vertex -5.8143459999999525 5.9999999999999565 138.0714349366117
  endloop
endfacet
facet normal -1.0 -3.1299912499372606e-16 -4.1349085757280775e-16
  outer loop
    vertex -5.8143459999999525 -6.000000000000047 138.0714349366117
    vertex -5.814345999999947 5.9999999999999565 126.07143493661168
    vertex -5.814345999999947 -6.000000000000047 126.07143493661168
  endloop
endfacet
facet normal -0.1305261922200163 1.6399576752142577e-15 0.9914448613738152
  outer loop
    vertex 0.655950987907669 -6.626921233987559e-14 129.62339252246463
    vertex -1.346533995416621e-13 -6.000000000000047 129.5370349366117
    vertex 0.6559509879076902 -6.000000000000047 129.62339252246463
  endloop
endfacet
facet normal -0.1305261922200163 1.6399576752142577e-15 0.9914448613738152
  outer loop
    vertex -1.346533995416621e-13 -6.000000000000047 129.5370349366117
    vertex 0.655950987907669 -6.626921233987559e-14 129.62339252246463
    vertex -1.4593326547185368e-13 -6.626921233987559e-14 129.53703493661166
  endloop
endfacet
facet normal 0.6087614290087798 1.2122657199527777e-15 0.7933533402911898
  outer loop
    vertex -1.2672000000001085 -6.626921233987559e-14 129.87658015326045
    vertex -1.5206400000000804 -6.000000000000047 130.0710515050939
    vertex -1.2672000000000618 -6.000000000000047 129.87658015326045
  endloop
endfacet
facet normal 0.6087614290087798 1.2122657199527777e-15 0.7933533402911898
  outer loop
    vertex -1.5206400000000804 -6.000000000000047 130.0710515050939
    vertex -1.2672000000001085 -6.626921233987559e-14 129.87658015326045
    vertex -1.5206400000001037 -6.626921233987559e-14 130.07105150509392
  endloop
endfacet
facet normal 0.6087614290086165 4.559706368755106e-16 -0.793353340291315
  outer loop
    vertex -1.52063999999984 -6.626921233987559e-14 134.0718183681297
    vertex -1.2671999999997046 -6.000000000000047 134.2662897199631
    vertex -1.52063999999984 -6.000000000000047 134.0718183681297
  endloop
endfacet
facet normal 0.6087614290086165 4.559706368755106e-16 -0.793353340291315
  outer loop
    vertex -1.2671999999997046 -6.000000000000047 134.2662897199631
    vertex -1.52063999999984 -6.626921233987559e-14 134.0718183681297
    vertex -1.2671999999997616 -6.626921233987559e-14 134.26628971996308
  endloop
endfacet
facet normal -0.3826834323650185 1.1860409324581676e-15 0.9238795325113164
  outer loop
    vertex 1.267199999999847 -6.626921233987559e-14 129.87658015326036
    vertex 0.6559509879076902 -6.000000000000047 129.62339252246463
    vertex 1.2671999999998822 -6.000000000000047 129.8765801532604
  endloop
endfacet
facet normal -0.3826834323650185 1.1860409324581676e-15 0.9238795325113164
  outer loop
    vertex 0.6559509879076902 -6.000000000000047 129.62339252246463
    vertex 1.267199999999847 -6.626921233987559e-14 129.87658015326036
    vertex 0.655950987907669 -6.626921233987559e-14 129.62339252246463
  endloop
endfacet
facet normal -0.13052619222013603 4.469606023979147e-16 -0.9914448613737994
  outer loop
    vertex 2.6366686611822844e-13 -6.626921233987559e-14 134.60583493661179
    vertex 0.655950987908092 -6.000000000000047 134.51947735075862
    vertex 2.6366686611822844e-13 -6.000000000000047 134.60583493661179
  endloop
endfacet
facet normal -0.13052619222013603 4.469606023979147e-16 -0.9914448613737994
  outer loop
    vertex 0.655950987908092 -6.000000000000047 134.51947735075862
    vertex 2.6366686611822844e-13 -6.626921233987559e-14 134.60583493661179
    vertex 0.6559509879080343 -6.626921233987559e-14 134.51947735075862
  endloop
endfacet
facet normal 1.0 1.905846147565175e-15 -7.172040739078519e-14
  outer loop
    vertex -1.5206400000000804 -6.000000000000047 130.0710515050939
    vertex -1.52063999999984 -6.626921233987559e-14 134.0718183681297
    vertex -1.52063999999984 -6.000000000000047 134.0718183681297
  endloop
endfacet
facet normal 1.0 1.905846147565175e-15 -7.172040739078519e-14
  outer loop
    vertex -1.52063999999984 -6.626921233987559e-14 134.0718183681297
    vertex -1.5206400000000804 -6.000000000000047 130.0710515050939
    vertex -1.5206400000001037 -6.626921233987559e-14 130.07105150509392
  endloop
endfacet
facet normal 0.38268343236515073 -2.2161276821399805e-15 0.9238795325112615
  outer loop
    vertex -0.6559509879079398 -6.626921233987559e-14 129.62339252246474
    vertex -1.2672000000000618 -6.000000000000047 129.87658015326045
    vertex -0.6559509879079172 -6.000000000000047 129.6233925224647
  endloop
endfacet
facet normal 0.38268343236515073 -2.2161276821399805e-15 0.9238795325112615
  outer loop
    vertex -1.2672000000000618 -6.000000000000047 129.87658015326045
    vertex -0.6559509879079398 -6.626921233987559e-14 129.62339252246474
    vertex -1.2672000000001085 -6.626921233987559e-14 129.87658015326045
  endloop
endfacet
facet normal -0.6087614290086444 -8.076253017654272e-16 0.7933533402912937
  outer loop
    vertex 1.520639999999857 -6.626921233987559e-14 130.07105150509366
    vertex 1.2671999999998822 -6.000000000000047 129.8765801532604
    vertex 1.5206399999999005 -6.000000000000047 130.07105150509366
  endloop
endfacet
facet normal -0.6087614290086444 -8.076253017654272e-16 0.7933533402912937
  outer loop
    vertex 1.2671999999998822 -6.000000000000047 129.8765801532604
    vertex 1.520639999999857 -6.626921233987559e-14 130.07105150509366
    vertex 1.267199999999847 -6.626921233987559e-14 129.87658015326036
  endloop
endfacet
facet normal -0.6087614290087647 -1.5639203848423147e-15 -0.7933533402912013
  outer loop
    vertex 1.2672000000001853 -6.626921233987559e-14 134.2662897199629
    vertex 1.5206400000001643 -6.000000000000047 134.07181836812953
    vertex 1.2672000000002206 -6.000000000000047 134.26628971996288
  endloop
endfacet
facet normal -0.6087614290087647 -1.5639203848423147e-15 -0.7933533402912013
  outer loop
    vertex 1.5206400000001643 -6.000000000000047 134.07181836812953
    vertex 1.2672000000001853 -6.626921233987559e-14 134.2662897199629
    vertex 1.5206400000001643 -6.626921233987559e-14 134.07181836812953
  endloop
endfacet
facet normal -1.0 -1.9058461475651783e-15 7.172040739078519e-14
  outer loop
    vertex 1.520639999999857 -6.626921233987559e-14 130.07105150509366
    vertex 1.5206400000001643 -6.000000000000047 134.07181836812953
    vertex 1.5206400000001643 -6.626921233987559e-14 134.07181836812953
  endloop
endfacet
facet normal -1.0 -1.9058461475651783e-15 7.172040739078519e-14
  outer loop
    vertex 1.5206400000001643 -6.000000000000047 134.07181836812953
    vertex 1.520639999999857 -6.626921233987559e-14 130.07105150509366
    vertex 1.5206399999999005 -6.000000000000047 130.07105150509366
  endloop
endfacet
facet normal -0.3826834323651786 -1.1559024674219484e-15 -0.9238795325112502
  outer loop
    vertex 0.6559509879080343 -6.626921233987559e-14 134.51947735075862
    vertex 1.2672000000002206 -6.000000000000047 134.26628971996288
    vertex 0.655950987908092 -6.000000000000047 134.51947735075862
  endloop
endfacet
facet normal -0.3826834323651786 -1.1559024674219484e-15 -0.9238795325112502
  outer loop
    vertex 1.2672000000002206 -6.000000000000047 134.26628971996288
    vertex 0.6559509879080343 -6.626921233987559e-14 134.51947735075862
    vertex 1.2672000000001853 -6.626921233987559e-14 134.2662897199629
  endloop
endfacet
facet normal 0.13052619222013456 -1.6411419888633596e-15 0.9914448613737996
  outer loop
    vertex -1.4593326547185368e-13 -6.626921233987559e-14 129.53703493661166
    vertex -0.6559509879079172 -6.000000000000047 129.6233925224647
    vertex -1.346533995416621e-13 -6.000000000000047 129.5370349366117
  endloop
endfacet
facet normal 0.13052619222013456 -1.6411419888633596e-15 0.9914448613737996
  outer loop
    vertex -0.6559509879079172 -6.000000000000047 129.6233925224647
    vertex -1.4593326547185368e-13 -6.626921233987559e-14 129.53703493661166
    vertex -0.6559509879079398 -6.626921233987559e-14 129.62339252246474
  endloop
endfacet
facet normal 0.13052619221995732 -3.03273766204042e-15 -0.9914448613738229
  outer loop
    vertex -0.6559509879075739 -6.626921233987559e-14 134.5194773507587
    vertex 2.6366686611822844e-13 -6.000000000000047 134.60583493661179
    vertex -0.6559509879075168 -6.000000000000047 134.51947735075876
  endloop
endfacet
facet normal 0.13052619221995732 -3.03273766204042e-15 -0.9914448613738229
  outer loop
    vertex 2.6366686611822844e-13 -6.000000000000047 134.60583493661179
    vertex -0.6559509879075739 -6.626921233987559e-14 134.5194773507587
    vertex 2.6366686611822844e-13 -6.626921233987559e-14 134.60583493661179
  endloop
endfacet
facet normal 0.38268343236502866 -2.6676655236187296e-15 -0.9238795325113123
  outer loop
    vertex -1.2671999999997616 -6.626921233987559e-14 134.26628971996308
    vertex -0.6559509879075168 -6.000000000000047 134.51947735075876
    vertex -1.2671999999997046 -6.000000000000047 134.2662897199631
  endloop
endfacet
facet normal 0.38268343236502866 -2.6676655236187296e-15 -0.9238795325113123
  outer loop
    vertex -0.6559509879075168 -6.000000000000047 134.51947735075876
    vertex -1.2671999999997616 -6.626921233987559e-14 134.26628971996308
    vertex -0.6559509879075739 -6.626921233987559e-14 134.5194773507587
  endloop
endfacet
facet normal 1.0 0.0 3.8857805861880474e-16
  outer loop
    vertex 100.18565400000006 -6.000000000000047 130.87143493661165
    vertex 100.18565400000006 5.9999999999999565 133.27143493661166
    vertex 100.18565400000006 -6.000000000000047 133.27143493661166
  endloop
endfacet
facet normal 1.0 0.0 3.8857805861880474e-16
  outer loop
    vertex 100.18565400000006 5.9999999999999565 133.27143493661166
    vertex 100.18565400000006 -6.000000000000047 130.87143493661165
    vertex 100.18565400000006 5.9999999999999565 130.87143493661165
  endloop
endfacet
facet normal 0.04523666255988854 0.0 0.9989762981975313
  outer loop
    vertex 100.18565400000006 5.9999999999999565 133.27143493661166
    vertex -5.8143459999999525 -6.000000000000047 138.0714349366117
    vertex 100.18565400000006 -6.000000000000047 133.27143493661166
  endloop
endfacet
facet normal 0.04523666255988854 0.0 0.9989762981975313
  outer loop
    vertex -5.8143459999999525 -6.000000000000047 138.0714349366117
    vertex 100.18565400000006 5.9999999999999565 133.27143493661166
    vertex -5.8143459999999525 5.9999999999999565 138.0714349366117
  endloop
endfacet
facet normal 0.04523666255988792 0.0 -0.9989762981975313
  outer loop
    vertex -5.814345999999947 5.9999999999999565 126.07143493661168
    vertex 100.18565400000006 -6.000000000000047 130.87143493661165
    vertex -5.814345999999947 -6.000000000000047 126.07143493661168
  endloop
endfacet
facet normal 0.04523666255988792 0.0 -0.9989762981975313
  outer loop
    vertex 100.18565400000006 -6.000000000000047 130.87143493661165
    vertex -5.814345999999947 5.9999999999999565 126.07143493661168
    vertex 100.18565400000006 5.9999999999999565 130.87143493661165
  endloop
endfacet
facet normal 0.0 1.0 0.0
  outer loop
    vertex 100.18565400000006 5.9999999999999565 133.27143493661166
    vertex -5.814345999999947 5.9999999999999565 126.07143493661168
    vertex -5.8143459999999525 5.9999999999999565 138.0714349366117
  endloop
endfacet
facet normal 0.0 1.0 0.0
  outer loop
    vertex -5.814345999999947 5.9999999999999565 126.07143493661168
    vertex 100.18565400000006 5.9999999999999565 133.27143493661166
    vertex 100.18565400000006 5.9999999999999565 130.87143493661165
  endloop
endfacet
facet normal 0.0 -1.0 0.0
  outer loop
    vertex -5.814345999999947 -6.000000000000047 126.07143493661168
    vertex -1.5206400000000804 -6.000000000000047 130.0710515050939
    vertex -5.8143459999999525 -6.000000000000047 138.0714349366117
  endloop
endfacet
facet normal 0.0 -1.0 0.0
  outer loop
    vertex -1.5206400000000804 -6.000000000000047 130.0710515050939
    vertex -5.814345999999947 -6.000000000000047 126.07143493661168
    vertex -1.2672000000000618 -6.000000000000047 129.87658015326045
  endloop
endfacet
facet normal 0.0 -1.0 0.0
  outer loop
    vertex -1.2672000000000618 -6.000000000000047 129.87658015326045
    vertex -5.814345999999947 -6.000000000000047 126.07143493661168
    vertex -0.6559509879079172 -6.000000000000047 129.6233925224647
  endloop
endfacet
facet normal 0.0 -1.0 0.0
  outer loop
    vertex -0.6559509879079172 -6.000000000000047 129.6233925224647
    vertex -5.814345999999947 -6.000000000000047 126.07143493661168
    vertex -1.346533995416621e-13 -6.000000000000047 129.5370349366117
  endloop
endfacet
facet normal 0.0 -1.0 0.0
  outer loop
    vertex -1.346533995416621e-13 -6.000000000000047 129.5370349366117
    vertex -5.814345999999947 -6.000000000000047 126.07143493661168
    vertex 100.18565400000006 -6.000000000000047 130.87143493661165
  endloop
endfacet
facet normal 0.0 -1.0 0.0
  outer loop
    vertex -1.346533995416621e-13 -6.000000000000047 129.5370349366117
    vertex 100.18565400000006 -6.000000000000047 130.87143493661165
    vertex 0.6559509879076902 -6.000000000000047 129.62339252246463
  endloop
endfacet
facet normal 0.0 -1.0 0.0
  outer loop
    vertex 0.6559509879076902 -6.000000000000047 129.62339252246463
    vertex 100.18565400000006 -6.000000000000047 130.87143493661165
    vertex 1.2671999999998822 -6.000000000000047 129.8765801532604
  endloop
endfacet
facet normal 0.0 -1.0 0.0
  outer loop
    vertex 1.2671999999998822 -6.000000000000047 129.8765801532604
    vertex 100.18565400000006 -6.000000000000047 130.87143493661165
    vertex 1.5206399999999005 -6.000000000000047 130.07105150509366
  endloop
endfacet
facet normal 0.0 -1.0 0.0
  outer loop
    vertex 1.5206399999999005 -6.000000000000047 130.07105150509366
    vertex 100.18565400000006 -6.000000000000047 130.87143493661165
    vertex 1.5206400000001643 -6.000000000000047 134.07181836812953
  endloop
endfacet
facet normal 0.0 -1.0 0.0
  outer loop
    vertex -5.8143459999999525 -6.000000000000047 138.0714349366117
    vertex 2.6366686611822844e-13 -6.000000000000047 134.60583493661179
    vertex 100.18565400000006 -6.000000000000047 133.27143493661166
  endloop
endfacet
facet normal 0.0 -1.0 0.0
  outer loop
    vertex 2.6366686611822844e-13 -6.000000000000047 134.60583493661179
    vertex -5.8143459999999525 -6.000000000000047 138.0714349366117
    vertex -0.6559509879075168 -6.000000000000047 134.51947735075876
  endloop
endfacet
facet normal 0.0 -1.0 0.0
  outer loop
    vertex -0.6559509879075168 -6.000000000000047 134.51947735075876
    vertex -5.8143459999999525 -6.000000000000047 138.0714349366117
    vertex -1.2671999999997046 -6.000000000000047 134.2662897199631
  endloop
endfacet
facet normal 0.0 -1.0 0.0
  outer loop
    vertex -1.2671999999997046 -6.000000000000047 134.2662897199631
    vertex -5.8143459999999525 -6.000000000000047 138.0714349366117
    vertex -1.52063999999984 -6.000000000000047 134.0718183681297
  endloop
endfacet
facet normal 0.0 -1.0 0.0
  outer loop
    vertex -1.52063999999984 -6.000000000000047 134.0718183681297
    vertex -5.8143459999999525 -6.000000000000047 138.0714349366117
    vertex -1.5206400000000804 -6.000000000000047 130.0710515050939
  endloop
endfacet
facet normal 0.0 -1.0 0.0
  outer loop
    vertex 100.18565400000006 -6.000000000000047 133.27143493661166
    vertex 2.6366686611822844e-13 -6.000000000000047 134.60583493661179
    vertex 0.655950987908092 -6.000000000000047 134.51947735075862
  endloop
endfacet
facet normal 0.0 -1.0 0.0
  outer loop
    vertex 100.18565400000006 -6.000000000000047 133.27143493661166
    vertex 0.655950987908092 -6.000000000000047 134.51947735075862
    vertex 1.2672000000002206 -6.000000000000047 134.26628971996288
  endloop
endfacet
facet normal 0.0 -1.0 0.0
  outer loop
    vertex 100.18565400000006 -6.000000000000047 133.27143493661166
    vertex 1.2672000000002206 -6.000000000000047 134.26628971996288
    vertex 1.5206400000001643 -6.000000000000047 134.07181836812953
  endloop
endfacet
facet normal 0.0 -1.0 0.0
  outer loop
    vertex 100.18565400000006 -6.000000000000047 133.27143493661166
    vertex 1.5206400000001643 -6.000000000000047 134.07181836812953
    vertex 100.18565400000006 -6.000000000000047 130.87143493661165
  endloop
endfacet
facet normal 0.0 -1.0 0.0
  outer loop
    vertex 0.655950987907669 -6.626921233987559e-14 129.62339252246463
    vertex 2.6366686611822844e-13 -6.626921233987559e-14 134.60583493661179
    vertex -1.4593326547185368e-13 -6.626921233987559e-14 129.53703493661166
  endloop
endfacet
facet normal 0.0 -1.0 0.0
  outer loop
    vertex 2.6366686611822844e-13 -6.626921233987559e-14 134.60583493661179
    vertex 0.655950987907669 -6.626921233987559e-14 129.62339252246463
    vertex 0.6559509879080343 -6.626921233987559e-14 134.51947735075862
  endloop
endfacet
facet normal 0.0 -1.0 0.0
  outer loop
    vertex 0.6559509879080343 -6.626921233987559e-14 134.51947735075862
    vertex 0.655950987907669 -6.626921233987559e-14 129.62339252246463
    vertex 1.267199999999847 -6.626921233987559e-14 129.87658015326036
  endloop
endfacet
facet normal 0.0 -1.0 0.0
  outer loop
    vertex 0.6559509879080343 -6.626921233987559e-14 134.51947735075862
    vertex 1.267199999999847 -6.626921233987559e-14 129.87658015326036
    vertex 1.2672000000001853 -6.626921233987559e-14 134.2662897199629
  endloop
endfacet
facet normal 0.0 -1.0 0.0
  outer loop
    vertex 1.2672000000001853 -6.626921233987559e-14 134.2662897199629
    vertex 1.267199999999847 -6.626921233987559e-14 129.87658015326036
    vertex 1.520639999999857 -6.626921233987559e-14 130.07105150509366
  endloop
endfacet
facet normal 0.0 -1.0 0.0
  outer loop
    vertex 1.2672000000001853 -6.626921233987559e-14 134.2662897199629
    vertex 1.520639999999857 -6.626921233987559e-14 130.07105150509366
    vertex 1.5206400000001643 -6.626921233987559e-14 134.07181836812953
  endloop
endfacet
facet normal 0.0 -1.0 0.0
  outer loop
    vertex -1.2672000000001085 -6.626921233987559e-14 129.87658015326045
    vertex -1.52063999999984 -6.626921233987559e-14 134.0718183681297
    vertex -1.5206400000001037 -6.626921233987559e-14 130.07105150509392
  endloop
endfacet
facet normal 0.0 -1.0 0.0
  outer loop
    vertex -1.52063999999984 -6.626921233987559e-14 134.0718183681297
    vertex -1.2672000000001085 -6.626921233987559e-14 129.87658015326045
    vertex -1.2671999999997616 -6.626921233987559e-14 134.26628971996308
  endloop
endfacet
facet normal 0.0 -1.0 0.0
  outer loop
    vertex -1.2671999999997616 -6.626921233987559e-14 134.26628971996308
    vertex -1.2672000000001085 -6.626921233987559e-14 129.87658015326045
    vertex -0.6559509879079398 -6.626921233987559e-14 129.62339252246474
  endloop
endfacet
facet normal 0.0 -1.0 0.0
  outer loop
    vertex -1.2671999999997616 -6.626921233987559e-14 134.26628971996308
    vertex -0.6559509879079398 -6.626921233987559e-14 129.62339252246474
    vertex -0.6559509879075739 -6.626921233987559e-14 134.5194773507587
  endloop
endfacet
facet normal 0.0 -1.0 0.0
  outer loop
    vertex -0.6559509879075739 -6.626921233987559e-14 134.5194773507587
    vertex -0.6559509879079398 -6.626921233987559e-14 129.62339252246474
    vertex -1.4593326547185368e-13 -6.626921233987559e-14 129.53703493661166
  endloop
endfacet
facet normal 0.0 -1.0 0.0
  outer loop
    vertex -0.6559509879075739 -6.626921233987559e-14 134.5194773507587
    vertex -1.4593326547185368e-13 -6.626921233987559e-14 129.53703493661166
    vertex 2.6366686611822844e-13 -6.626921233987559e-14 134.60583493661179
  endloop
endfacet
endsolid Arm
