solid Arm
facet normal -0.3826834323650975 0.0 0.9238795325112836
  outer loop
    vertex 1.2671999999999963 -6.000000000000045 51.56223415326039
    vertex 0.6559509879078284 -4.2299497238218464e-14 51.309046522464634
    vertex 0.6559509879078284 -6.000000000000045 51.309046522464634
  endloop
endfacet
facet normal -0.3826834323650975 0.0 0.9238795325112836
  outer loop
    vertex 0.6559509879078284 -4.2299497238218464e-14 51.309046522464634
    vertex 1.2671999999999963 -6.000000000000045 51.56223415326039
    vertex 1.2671999999999963 -4.2299497238218464e-14 51.56223415326039
  endloop
endfacet
facet normal -0.38268343236508295 0.0 -0.9238795325112896
  outer loop
    vertex 1.2671999999999963 -4.2299497238218464e-14 55.951943719962934
    vertex 0.6559509879078284 -6.000000000000045 56.20513135075867
    vertex 0.6559509879078284 -4.2299497238218464e-14 56.20513135075867
  endloop
endfacet
facet normal -0.38268343236508295 0.0 -0.9238795325112896
  outer loop
    vertex 0.6559509879078284 -6.000000000000045 56.20513135075867
    vertex 1.2671999999999963 -4.2299497238218464e-14 55.951943719962934
    vertex 1.2671999999999963 -6.000000000000045 55.951943719962934
  endloop
endfacet
facet normal -0.1305261922200539 0.0 0.9914448613738103
  outer loop
    vertex 0.6559509879078284 -6.000000000000045 51.309046522464634
    vertex -1.2689849171465539e-14 -4.2299497238218464e-14 51.22268893661165
    vertex -1.2689849171465539e-14 -6.000000000000045 51.22268893661165
  endloop
endfacet
facet normal -0.1305261922200539 0.0 0.9914448613738103
  outer loop
    vertex -1.2689849171465539e-14 -4.2299497238218464e-14 51.22268893661165
    vertex 0.6559509879078284 -6.000000000000045 51.309046522464634
    vertex 0.6559509879078284 -4.2299497238218464e-14 51.309046522464634
  endloop
endfacet
facet normal 0.1305261922200668 0.0 -0.9914448613738085
  outer loop
    vertex -1.2689849171465539e-14 -4.2299497238218464e-14 56.29148893661166
    vertex -0.6559509879078284 -6.000000000000045 56.20513135075867
    vertex -0.6559509879078284 -4.2299497238218464e-14 56.20513135075867
  endloop
endfacet
facet normal 0.1305261922200668 0.0 -0.9914448613738085
  outer loop
    vertex -0.6559509879078284 -6.000000000000045 56.20513135075867
    vertex -1.2689849171465539e-14 -4.2299497238218464e-14 56.29148893661166
    vertex -1.2689849171465539e-14 -6.000000000000045 56.29148893661166
  endloop
endfacet
facet normal 0.38268343236512214 0.0 0.9238795325112734
  outer loop
    vertex -0.6559509879078284 -6.000000000000045 51.309046522464634
    vertex -1.2671999999999526 -4.2299497238218464e-14 51.56223415326039
    vertex -1.2671999999999526 -6.000000000000045 51.56223415326039
  endloop
endfacet
facet normal 0.38268343236512214 0.0 0.9238795325112734
  outer loop
    vertex -1.2671999999999526 -4.2299497238218464e-14 51.56223415326039
    vertex -0.6559509879078284 -6.000000000000045 51.309046522464634
    vertex -0.6559509879078284 -4.2299497238218464e-14 51.309046522464634
  endloop
endfacet
facet normal -1.0 0.0 0.0
  outer loop
    vertex 1.520640000000009 -4.2299497238218464e-14 55.75747236812956
    vertex 1.520640000000009 -6.000000000000045 51.75670550509374
    vertex 1.520640000000009 -6.000000000000045 55.75747236812956
  endloop
endfacet
facet normal -1.0 0.0 0.0
  outer loop
    vertex 1.520640000000009 -6.000000000000045 51.75670550509374
    vertex 1.520640000000009 -4.2299497238218464e-14 55.75747236812956
    vertex 1.520640000000009 -4.2299497238218464e-14 51.75670550509374
  endloop
endfacet
facet normal -0.6087614290086827 0.0 0.7933533402912645
  outer loop
    vertex 1.520640000000009 -6.000000000000045 51.75670550509374
    vertex 1.2671999999999963 -4.2299497238218464e-14 51.56223415326039
    vertex 1.2671999999999963 -6.000000000000045 51.56223415326039
  endloop
endfacet
facet normal -0.6087614290086827 0.0 0.7933533402912645
  outer loop
    vertex 1.2671999999999963 -4.2299497238218464e-14 51.56223415326039
    vertex 1.520640000000009 -6.000000000000045 51.75670550509374
    vertex 1.520640000000009 -4.2299497238218464e-14 51.75670550509374
  endloop
endfacet
facet normal -0.6087614290087048 0.0 -0.7933533402912474
  outer loop
    vertex 1.520640000000009 -4.2299497238218464e-14 55.75747236812956
    vertex 1.2671999999999963 -6.000000000000045 55.951943719962934
    vertex 1.2671999999999963 -4.2299497238218464e-14 55.951943719962934
  endloop
endfacet
facet normal -0.6087614290087048 0.0 -0.7933533402912474
  outer loop
    vertex 1.2671999999999963 -6.000000000000045 55.951943719962934
    vertex 1.520640000000009 -4.2299497238218464e-14 55.75747236812956
    vertex 1.520640000000009 -6.000000000000045 55.75747236812956
  endloop
endfacet
facet normal 1.0 0.0 0.0
  outer loop
    vertex -1.520639999999964 -4.2299497238218464e-14 51.75670550509374
    vertex -1.520639999999964 -6.000000000000045 55.75747236812956
    vertex -1.520639999999964 -6.000000000000045 51.75670550509374
  endloop
endfacet
facet normal 1.0 0.0 0.0
  outer loop
    vertex -1.520639999999964 -6.000000000000045 55.75747236812956
    vertex -1.520639999999964 -4.2299497238218464e-14 51.75670550509374
    vertex -1.520639999999964 -4.2299497238218464e-14 55.75747236812956
  endloop
endfacet
facet normal 0.38268343236510743 0.0 -0.9238795325112796
  outer loop
    vertex -0.6559509879078284 -4.2299497238218464e-14 56.20513135075867
    vertex -1.2671999999999526 -6.000000000000045 55.951943719962934
    vertex -1.2671999999999526 -4.2299497238218464e-14 55.951943719962934
  endloop
endfacet
facet normal 0.38268343236510743 0.0 -0.9238795325112796
  outer loop
    vertex -1.2671999999999526 -6.000000000000045 55.951943719962934
    vertex -0.6559509879078284 -4.2299497238218464e-14 56.20513135075867
    vertex -0.6559509879078284 -6.000000000000045 56.20513135075867
  endloop
endfacet
facet normal 0.0 0.0 -1.0
  outer loop
    vertex 6.0 5.999999999999958 49.25708893661165
    vertex -6.0 -6.000000000000045 49.25708893661165
    vertex -6.0 5.999999999999958 49.25708893661165
  endloop
endfacet
facet normal 0.0 0.0 -1.0
  outer loop
    vertex -6.0 -6.000000000000045 49.25708893661165
    vertex 6.0 5.999999999999958 49.25708893661165
    vertex 6.0 -6.000000000000045 49.25708893661165
  endloop
endfacet
facet normal 0.6087614290086827 0.0 0.7933533402912645
  outer loop
    vertex -1.2671999999999526 -6.000000000000045 51.56223415326039
    vertex -1.520639999999964 -4.2299497238218464e-14 51.75670550509374
    vertex -1.520639999999964 -6.000000000000045 51.75670550509374
  endloop
endfacet
facet normal 0.6087614290086827 0.0 0.7933533402912645
  outer loop
    vertex -1.520639999999964 -4.2299497238218464e-14 51.75670550509374
    vertex -1.2671999999999526 -6.000000000000045 51.56223415326039
    vertex -1.2671999999999526 -4.2299497238218464e-14 51.56223415326039
  endloop
endfacet
facet normal 0.6087614290087048 0.0 -0.7933533402912474
  outer loop
    vertex -1.2671999999999526 -4.2299497238218464e-14 55.951943719962934
    vertex -1.520639999999964 -6.000000000000045 55.75747236812956
    vertex -1.520639999999964 -4.2299497238218464e-14 55.75747236812956
  endloop
endfacet
facet normal 0.6087614290087048 0.0 -0.7933533402912474
  outer loop
    vertex -1.520639999999964 -6.000000000000045 55.75747236812956
    vertex -1.2671999999999526 -4.2299497238218464e-14 55.951943719962934
    vertex -1.2671999999999526 -6.000000000000045 55.951943719962934
  endloop
endfacet
facet normal 0.0 0.0 -1.0
  outer loop
    vertex 5.500000000000001 -4.000000000000059 104.27194000000001
    vertex -5.500000000000001 -6.000000000000045 104.27194000000001
    vertex -5.500000000000001 -4.000000000000059 104.27194000000001
  endloop
endfacet
facet normal 0.0 0.0 -1.0
  outer loop
    vertex -5.500000000000001 -6.000000000000045 104.27194000000001
    vertex 5.500000000000001 -4.000000000000059 104.27194000000001
    vertex 5.500000000000001 -6.000000000000045 104.27194000000001
  endloop
endfacet
facet normal 0.13052619222005843 0.0 0.9914448613738096
  outer loop
    vertex -1.2689849171465539e-14 -6.000000000000045 51.22268893661165
    vertex -0.6559509879078284 -4.2299497238218464e-14 51.309046522464634
    vertex -0.6559509879078284 -6.000000000000045 51.309046522464634
  endloop
endfacet
facet normal 0.13052619222005843 0.0 0.9914448613738096
  outer loop
    vertex -0.6559509879078284 -4.2299497238218464e-14 51.309046522464634
    vertex -1.2689849171465539e-14 -6.000000000000045 51.22268893661165
    vertex -1.2689849171465539e-14 -4.2299497238218464e-14 51.22268893661165
  endloop
endfacet
facet normal 0.0 -1.0 0.0
  outer loop
    vertex 5.500000000000001 -4.000000000000059 104.27194000000001
    vertex -5.500000000000001 -4.000000000000059 100.17194
    vertex 5.500000000000001 -4.000000000000059 100.17194
  endloop
endfacet
facet normal 0.0 -1.0 0.0
  outer loop
    vertex -5.500000000000001 -4.000000000000059 100.17194
    vertex 5.500000000000001 -4.000000000000059 104.27194000000001
    vertex -5.500000000000001 -4.000000000000059 104.27194000000001
  endloop
endfacet
facet normal 0.0 0.0 1.0
  outer loop
    vertex 5.500000000000001 -6.000000000000045 100.17194
    vertex -5.500000000000001 -4.000000000000059 100.17194
    vertex -5.500000000000001 -6.000000000000045 100.17194
  endloop
endfacet
facet normal 0.0 0.0 1.0
  outer loop
    vertex -5.500000000000001 -4.000000000000059 100.17194
    vertex 5.500000000000001 -6.000000000000045 100.17194
    vertex 5.500000000000001 -4.000000000000059 100.17194
  endloop
endfacet
facet normal -0.13052619222006243 0.0 -0.9914448613738092
  outer loop
    vertex 0.6559509879078284 -4.2299497238218464e-14 56.20513135075867
    vertex -1.2689849171465539e-14 -6.000000000000045 56.29148893661166
    vertex -1.2689849171465539e-14 -4.2299497238218464e-14 56.29148893661166
  endloop
endfacet
facet normal -0.13052619222006243 0.0 -0.9914448613738092
  outer loop
    vertex -1.2689849171465539e-14 -6.000000000000045 56.29148893661166
    vertex 0.6559509879078284 -4.2299497238218464e-14 56.20513135075867
    vertex 0.6559509879078284 -6.000000000000045 56.20513135075867
  endloop
endfacet
facet normal 0.7071067838207249 0.0 0.7071067785523701
  outer loop
    vertex 6.0 5.999999999999958 113.25708893661167
    vertex 4.470348412000113e-08 -6.000000000000006 119.25708893661165
    vertex 6.0 -6.000000000000006 113.25708893661167
  endloop
endfacet
facet normal 0.7071067838207249 0.0 0.7071067785523701
  outer loop
    vertex 4.470348412000113e-08 -6.000000000000006 119.25708893661165
    vertex 6.0 5.999999999999958 113.25708893661167
    vertex 4.470348412000113e-08 5.999999999999958 119.25708893661165
  endloop
endfacet
facet normal -0.7071067732840126 0.0 0.7071067890890824
  outer loop
    vertex 4.470348412000113e-08 -6.000000000000006 119.25708893661165
    vertex -5.999999999999999 5.999999999999958 113.25708902601863
    vertex -5.999999999999999 -6.000000000000006 113.25708902601863
  endloop
endfacet
facet normal -0.7071067732840126 0.0 0.7071067890890824
  outer loop
    vertex -5.999999999999999 5.999999999999958 113.25708902601863
    vertex 4.470348412000113e-08 -6.000000000000006 119.25708893661165
    vertex 4.470348412000113e-08 5.999999999999958 119.25708893661165
  endloop
endfacet
facet normal 0.0 -1.0 0.0
  outer loop
    vertex 0.6559509879078284 -4.2299497238218464e-14 51.309046522464634
    vertex -0.6559509879078284 -4.2299497238218464e-14 51.309046522464634
    vertex -1.2689849171465539e-14 -4.2299497238218464e-14 51.22268893661165
  endloop
endfacet
facet normal 0.0 -1.0 0.0
  outer loop
    vertex -0.6559509879078284 -4.2299497238218464e-14 51.309046522464634
    vertex 0.6559509879078284 -4.2299497238218464e-14 51.309046522464634
    vertex 1.2671999999999963 -4.2299497238218464e-14 51.56223415326039
  endloop
endfacet
facet normal 0.0 -1.0 0.0
  outer loop
    vertex -0.6559509879078284 -4.2299497238218464e-14 51.309046522464634
    vertex 1.2671999999999963 -4.2299497238218464e-14 51.56223415326039
    vertex -1.2671999999999526 -4.2299497238218464e-14 51.56223415326039
  endloop
endfacet
facet normal 0.0 -1.0 0.0
  outer loop
    vertex -1.2671999999999526 -4.2299497238218464e-14 51.56223415326039
    vertex 1.2671999999999963 -4.2299497238218464e-14 51.56223415326039
    vertex 1.520640000000009 -4.2299497238218464e-14 51.75670550509374
  endloop
endfacet
facet normal 0.0 -1.0 0.0
  outer loop
    vertex -1.2671999999999526 -4.2299497238218464e-14 51.56223415326039
    vertex 1.520640000000009 -4.2299497238218464e-14 51.75670550509374
    vertex -1.520639999999964 -4.2299497238218464e-14 51.75670550509374
  endloop
endfacet
facet normal 0.0 -1.0 0.0
  outer loop
    vertex -1.520639999999964 -4.2299497238218464e-14 51.75670550509374
    vertex 1.520640000000009 -4.2299497238218464e-14 51.75670550509374
    vertex 1.520640000000009 -4.2299497238218464e-14 55.75747236812956
  endloop
endfacet
facet normal 0.0 -1.0 0.0
  outer loop
    vertex -1.520639999999964 -4.2299497238218464e-14 51.75670550509374
    vertex 1.520640000000009 -4.2299497238218464e-14 55.75747236812956
    vertex -1.520639999999964 -4.2299497238218464e-14 55.75747236812956
  endloop
endfacet
facet normal 0.0 -1.0 0.0
  outer loop
    vertex -1.520639999999964 -4.2299497238218464e-14 55.75747236812956
    vertex 1.520640000000009 -4.2299497238218464e-14 55.75747236812956
    vertex 1.2671999999999963 -4.2299497238218464e-14 55.951943719962934
  endloop
endfacet
facet normal 0.0 -1.0 0.0
  outer loop
    vertex -1.520639999999964 -4.2299497238218464e-14 55.75747236812956
    vertex 1.2671999999999963 -4.2299497238218464e-14 55.951943719962934
    vertex -1.2671999999999526 -4.2299497238218464e-14 55.951943719962934
  endloop
endfacet
facet normal 0.0 -1.0 0.0
  outer loop
    vertex -1.2671999999999526 -4.2299497238218464e-14 55.951943719962934
    vertex 1.2671999999999963 -4.2299497238218464e-14 55.951943719962934
    vertex 0.6559509879078284 -4.2299497238218464e-14 56.20513135075867
  endloop
endfacet
facet normal 0.0 -1.0 0.0
  outer loop
    vertex -1.2671999999999526 -4.2299497238218464e-14 55.951943719962934
    vertex 0.6559509879078284 -4.2299497238218464e-14 56.20513135075867
    vertex -0.6559509879078284 -4.2299497238218464e-14 56.20513135075867
  endloop
endfacet
facet normal 0.0 -1.0 0.0
  outer loop
    vertex -0.6559509879078284 -4.2299497238218464e-14 56.20513135075867
    vertex 0.6559509879078284 -4.2299497238218464e-14 56.20513135075867
    vertex -1.2689849171465539e-14 -4.2299497238218464e-14 56.29148893661166
  endloop
endfacet
facet normal 0.0 -1.0 0.0
  outer loop
    vertex 5.500000000000001 -6.000000000000045 100.17194
    vertex -5.500000000000001 -6.000000000000045 98.52194
    vertex 5.500000000000001 -6.000000000000045 98.52194
  endloop
endfacet
facet normal 0.0 -1.0 0.0
  outer loop
    vertex -5.500000000000001 -6.000000000000045 98.52194
    vertex 5.500000000000001 -6.000000000000045 100.17194
    vertex -5.500000000000001 -6.000000000000045 100.17194
  endloop
endfacet
facet normal 0.0 1.0 0.0
  outer loop
    vertex -5.999999999999999 5.999999999999958 113.25708902601863
    vertex -5.5 5.999999999999958 105.92194000000002
    vertex -6.0 5.999999999999958 105.92194000000002
  endloop
endfacet
facet normal 0.0 1.0 0.0
  outer loop
    vertex -5.5 5.999999999999958 105.92194000000002
    vertex -5.999999999999999 5.999999999999958 113.25708902601863
    vertex 5.500000000000001 5.999999999999958 105.92194000000002
  endloop
endfacet
facet normal 0.0 1.0 0.0
  outer loop
    vertex 5.500000000000001 5.999999999999958 105.92194000000002
    vertex -5.999999999999999 5.999999999999958 113.25708902601863
    vertex 6.0 5.999999999999958 105.92194000000002
  endloop
endfacet
facet normal 0.0 1.0 0.0
  outer loop
    vertex 6.0 5.999999999999958 105.92194000000002
    vertex -5.999999999999999 5.999999999999958 113.25708902601863
    vertex 6.0 5.999999999999958 113.25708893661167
  endloop
endfacet
facet normal 0.0 1.0 0.0
  outer loop
    vertex 6.0 5.999999999999958 113.25708893661167
    vertex -5.999999999999999 5.999999999999958 113.25708902601863
    vertex 4.470348412000113e-08 5.999999999999958 119.25708893661165
  endloop
endfacet
facet normal 7.768827526334773e-24 -1.0 2.8254726398264376e-15
  outer loop
    vertex 6.0 -6.000000000000006 113.25708893661167
    vertex 5.500000000000001 -6.000000000000038 105.92194000000002
    vertex 6.0 -6.000000000000038 105.92194000000002
  endloop
endfacet
facet normal 7.768827526334773e-24 -1.0 2.8254726398264376e-15
  outer loop
    vertex 5.500000000000001 -6.000000000000038 105.92194000000002
    vertex 6.0 -6.000000000000006 113.25708893661167
    vertex -5.500000000000001 -6.000000000000038 105.92194000000002
  endloop
endfacet
facet normal 7.768827526334773e-24 -1.0 2.8254726398264376e-15
  outer loop
    vertex -5.500000000000001 -6.000000000000038 105.92194000000002
    vertex 6.0 -6.000000000000006 113.25708893661167
    vertex -6.0 -6.000000000000038 105.92194000000002
  endloop
endfacet
facet normal 7.768827526334773e-24 -1.0 2.8254726398264376e-15
  outer loop
    vertex -6.0 -6.000000000000038 105.92194000000002
    vertex 6.0 -6.000000000000006 113.25708893661167
    vertex -5.999999999999999 -6.000000000000006 113.25708902601863
  endloop
endfacet
facet normal 7.768827526334773e-24 -1.0 2.8254726398264376e-15
  outer loop
    vertex -5.999999999999999 -6.000000000000006 113.25708902601863
    vertex 6.0 -6.000000000000006 113.25708893661167
    vertex 4.470348412000113e-08 -6.000000000000006 119.25708893661165
  endloop
endfacet
facet normal 1.0 0.0 0.0
  outer loop
    vertex 6.0 5.999999999999958 105.92194000000002
    vertex 6.0 -6.000000000000006 113.25708893661167
    vertex 6.0 -6.000000000000038 105.92194000000002
  endloop
endfacet
facet normal 1.0 0.0 0.0
  outer loop
    vertex 6.0 -6.000000000000006 113.25708893661167
    vertex 6.0 5.999999999999958 105.92194000000002
    vertex 6.0 5.999999999999958 113.25708893661167
  endloop
endfacet
facet normal 0.0 -1.0 4.2726764887089144e-15
  outer loop
    vertex 5.500000000000001 -6.000000000000038 105.92194000000002
    vertex -5.500000000000001 -6.000000000000045 104.27194000000001
    vertex 5.500000000000001 -6.000000000000045 104.27194000000001
  endloop
endfacet
facet normal 0.0 -1.0 4.2726764887089144e-15
  outer loop
    vertex -5.500000000000001 -6.000000000000045 104.27194000000001
    vertex 5.500000000000001 -6.000000000000038 105.92194000000002
    vertex -5.500000000000001 -6.000000000000038 105.92194000000002
  endloop
endfacet
facet normal -1.0 2.9374650859874026e-17 1.4416713651003304e-16
  outer loop
    vertex -5.999999999999999 -6.000000000000006 113.25708902601863
    vertex -6.0 5.999999999999958 105.92194000000002
    vertex -6.0 -6.000000000000038 105.92194000000002
  endloop
endfacet
facet normal -1.0 2.9374650859874026e-17 1.4416713651003304e-16
  outer loop
    vertex -6.0 5.999999999999958 105.92194000000002
    vertex -5.999999999999999 -6.000000000000006 113.25708902601863
    vertex -5.999999999999999 5.999999999999958 113.25708902601863
  endloop
endfacet
facet normal 0.0 1.0 0.0
  outer loop
    vertex -5.5 5.999999999999958 105.92194000000002
    vertex 5.500000000000001 5.999999999999958 98.52194
    vertex -5.500000000000001 5.999999999999958 98.52194
  endloop
endfacet
facet normal 0.0 1.0 0.0
  outer loop
    vertex 5.500000000000001 5.999999999999958 98.52194
    vertex -5.5 5.999999999999958 105.92194000000002
    vertex 5.500000000000001 5.999999999999958 105.92194000000002
  endloop
endfacet
facet normal 1.0 0.0 0.0
  outer loop
    vertex 6.0 5.999999999999958 49.25708893661165
    vertex 6.0 -6.000000000000045 98.52194
    vertex 6.0 -6.000000000000045 49.25708893661165
  endloop
endfacet
facet normal 1.0 0.0 0.0
  outer loop
    vertex 6.0 -6.000000000000045 98.52194
    vertex 6.0 5.999999999999958 49.25708893661165
    vertex 6.0 5.999999999999958 98.52194
  endloop
endfacet
facet normal 0.0 1.0 0.0
  outer loop
    vertex -6.0 5.999999999999958 98.52194
    vertex 6.0 5.999999999999958 49.25708893661165
    vertex -6.0 5.999999999999958 49.25708893661165
  endloop
endfacet
facet normal 0.0 1.0 0.0
  outer loop
    vertex 6.0 5.999999999999958 49.25708893661165
    vertex -6.0 5.999999999999958 98.52194
    vertex 6.0 5.999999999999958 98.52194
  endloop
endfacet
facet normal 0.0 1.0 0.0
  outer loop
    vertex 6.0 5.999999999999958 98.52194
    vertex -6.0 5.999999999999958 98.52194
    vertex -5.500000000000001 5.999999999999958 98.52194
  endloop
endfacet
facet normal 0.0 1.0 0.0
  outer loop
    vertex 6.0 5.999999999999958 98.52194
    vertex -5.500000000000001 5.999999999999958 98.52194
    vertex 5.500000000000001 5.999999999999958 98.52194
  endloop
endfacet
facet normal -1.0 0.0 0.0
  outer loop
    vertex -6.0 5.999999999999958 98.52194
    vertex -6.0 -6.000000000000045 49.25708893661165
    vertex -6.0 -6.000000000000045 98.52194
  endloop
endfacet
facet normal -1.0 0.0 0.0
  outer loop
    vertex -6.0 -6.000000000000045 49.25708893661165
    vertex -6.0 5.999999999999958 98.52194
    vertex -6.0 5.999999999999958 49.25708893661165
  endloop
endfacet
facet normal 0.0 -1.0 0.0
  outer loop
    vertex 6.0 -6.000000000000045 49.25708893661165
    vertex 0.6559509879078284 -6.000000000000045 51.309046522464634
    vertex -6.0 -6.000000000000045 49.25708893661165
  endloop
endfacet
facet normal 0.0 -1.0 0.0
  outer loop
    vertex 0.6559509879078284 -6.000000000000045 51.309046522464634
    vertex 6.0 -6.000000000000045 49.25708893661165
    vertex 1.2671999999999963 -6.000000000000045 51.56223415326039
  endloop
endfacet
facet normal 0.0 -1.0 0.0
  outer loop
    vertex 1.2671999999999963 -6.000000000000045 51.56223415326039
    vertex 6.0 -6.000000000000045 49.25708893661165
    vertex 1.520640000000009 -6.000000000000045 51.75670550509374
  endloop
endfacet
facet normal 0.0 -1.0 0.0
  outer loop
    vertex 1.520640000000009 -6.000000000000045 51.75670550509374
    vertex 6.0 -6.000000000000045 49.25708893661165
    vertex 6.0 -6.000000000000045 98.52194
  endloop
endfacet
facet normal 0.0 -1.0 0.0
  outer loop
    vertex -6.0 -6.000000000000045 49.25708893661165
    vertex 0.6559509879078284 -6.000000000000045 51.309046522464634
    vertex -1.2689849171465539e-14 -6.000000000000045 51.22268893661165
  endloop
endfacet
facet normal 0.0 -1.0 0.0
  outer loop
    vertex 1.520640000000009 -6.000000000000045 51.75670550509374
    vertex 6.0 -6.000000000000045 98.52194
    vertex 1.520640000000009 -6.000000000000045 55.75747236812956
  endloop
endfacet
facet normal 0.0 -1.0 0.0
  outer loop
    vertex 1.520640000000009 -6.000000000000045 55.75747236812956
    vertex 6.0 -6.000000000000045 98.52194
    vertex 1.2671999999999963 -6.000000000000045 55.951943719962934
  endloop
endfacet
facet normal 0.0 -1.0 0.0
  outer loop
    vertex 1.2671999999999963 -6.000000000000045 55.951943719962934
    vertex 6.0 -6.000000000000045 98.52194
    vertex 0.6559509879078284 -6.000000000000045 56.20513135075867
  endloop
endfacet
facet normal 0.0 -1.0 0.0
  outer loop
    vertex 0.6559509879078284 -6.000000000000045 56.20513135075867
    vertex 6.0 -6.000000000000045 98.52194
    vertex -1.2689849171465539e-14 -6.000000000000045 56.29148893661166
  endloop
endfacet
facet normal 0.0 -1.0 0.0
  outer loop
    vertex -6.0 -6.000000000000045 49.25708893661165
    vertex -1.520639999999964 -6.000000000000045 51.75670550509374
    vertex -6.0 -6.000000000000045 98.52194
  endloop
endfacet
facet normal 0.0 -1.0 0.0
  outer loop
    vertex -1.520639999999964 -6.000000000000045 51.75670550509374
    vertex -6.0 -6.000000000000045 49.25708893661165
    vertex -1.2671999999999526 -6.000000000000045 51.56223415326039
  endloop
endfacet
facet normal 0.0 -1.0 0.0
  outer loop
    vertex -1.2671999999999526 -6.000000000000045 51.56223415326039
    vertex -6.0 -6.000000000000045 49.25708893661165
    vertex -0.6559509879078284 -6.000000000000045 51.309046522464634
  endloop
endfacet
facet normal 0.0 -1.0 0.0
  outer loop
    vertex -0.6559509879078284 -6.000000000000045 51.309046522464634
    vertex -6.0 -6.000000000000045 49.25708893661165
    vertex -1.2689849171465539e-14 -6.000000000000045 51.22268893661165
  endloop
endfacet
facet normal 0.0 -1.0 0.0
  outer loop
    vertex -6.0 -6.000000000000045 98.52194
    vertex -1.520639999999964 -6.000000000000045 51.75670550509374
    vertex -1.520639999999964 -6.000000000000045 55.75747236812956
  endloop
endfacet
facet normal 0.0 -1.0 0.0
  outer loop
    vertex -6.0 -6.000000000000045 98.52194
    vertex -1.520639999999964 -6.000000000000045 55.75747236812956
    vertex -1.2671999999999526 -6.000000000000045 55.951943719962934
  endloop
endfacet
facet normal 0.0 -1.0 0.0
  outer loop
    vertex -6.0 -6.000000000000045 98.52194
    vertex -1.2671999999999526 -6.000000000000045 55.951943719962934
    vertex -0.6559509879078284 -6.000000000000045 56.20513135075867
  endloop
endfacet
facet normal 0.0 -1.0 0.0
  outer loop
    vertex -6.0 -6.000000000000045 98.52194
    vertex -0.6559509879078284 -6.000000000000045 56.20513135075867
    vertex -1.2689849171465539e-14 -6.000000000000045 56.29148893661166
  endloop
endfacet
facet normal 0.0 -1.0 0.0
  outer loop
    vertex -6.0 -6.000000000000045 98.52194
    vertex -1.2689849171465539e-14 -6.000000000000045 56.29148893661166
    vertex 6.0 -6.000000000000045 98.52194
  endloop
endfacet
facet normal 0.0 -1.0 0.0
  outer loop
    vertex -6.0 -6.000000000000045 98.52194
    vertex 6.0 -6.000000000000045 98.52194
    vertex 5.500000000000001 -6.000000000000045 98.52194
  endloop
endfacet
facet normal 0.0 -1.0 0.0
  outer loop
    vertex -6.0 -6.000000000000045 98.52194
    vertex 5.500000000000001 -6.000000000000045 98.52194
    vertex -5.500000000000001 -6.000000000000045 98.52194
  endloop
endfacet
facet normal 1.0 0.0 0.0
  outer loop
    vertex 5.500000000000001 5.999999999999958 98.52194
    vertex 5.500000000000001 -6.000000000000045 100.17194
    vertex 5.500000000000001 -6.000000000000045 98.52194
  endloop
endfacet
facet normal 1.0 0.0 0.0
  outer loop
    vertex 5.500000000000001 -6.000000000000045 100.17194
    vertex 5.500000000000001 5.999999999999958 98.52194
    vertex 5.500000000000001 -4.000000000000059 100.17194
  endloop
endfacet
facet normal 1.0 0.0 0.0
  outer loop
    vertex 5.500000000000001 -4.000000000000059 100.17194
    vertex 5.500000000000001 5.999999999999958 98.52194
    vertex 5.500000000000001 -4.000000000000059 104.27194000000001
  endloop
endfacet
facet normal 1.0 0.0 0.0
  outer loop
    vertex 5.500000000000001 -4.000000000000059 104.27194000000001
    vertex 5.500000000000001 -6.000000000000038 105.92194000000002
    vertex 5.500000000000001 -6.000000000000045 104.27194000000001
  endloop
endfacet
facet normal 1.0 0.0 0.0
  outer loop
    vertex 5.500000000000001 -6.000000000000038 105.92194000000002
    vertex 5.500000000000001 -4.000000000000059 104.27194000000001
    vertex 5.500000000000001 5.999999999999958 105.92194000000002
  endloop
endfacet
facet normal 1.0 0.0 0.0
  outer loop
    vertex 5.500000000000001 5.999999999999958 105.92194000000002
    vertex 5.500000000000001 -4.000000000000059 104.27194000000001
    vertex 5.500000000000001 5.999999999999958 98.52194
  endloop
endfacet
facet normal 0.0 0.0 1.0
  outer loop
    vertex 6.0 -6.000000000000045 98.52194
    vertex 5.500000000000001 5.999999999999958 98.52194
    vertex 5.500000000000001 -6.000000000000045 98.52194
  endloop
endfacet
facet normal 0.0 0.0 1.0
  outer loop
    vertex 5.500000000000001 5.999999999999958 98.52194
    vertex 6.0 -6.000000000000045 98.52194
    vertex 6.0 5.999999999999958 98.52194
  endloop
endfacet
facet normal -0.0 -0.0 -1.0
  outer loop
    vertex 6.0 5.999999999999958 105.92194000000002
    vertex 5.500000000000001 -6.000000000000038 105.92194000000002
    vertex 5.500000000000001 5.999999999999958 105.92194000000002
  endloop
endfacet
facet normal -0.0 -0.0 -1.0
  outer loop
    vertex 5.500000000000001 -6.000000000000038 105.92194000000002
    vertex 6.0 5.999999999999958 105.92194000000002
    vertex 6.0 -6.000000000000038 105.92194000000002
  endloop
endfacet
facet normal -1.0 3.026479179502162e-17 3.644640207289082e-17
  outer loop
    vertex -5.500000000000001 -6.000000000000038 105.92194000000002
    vertex -5.500000000000001 -4.000000000000059 104.27194000000001
    vertex -5.500000000000001 -6.000000000000045 104.27194000000001
  endloop
endfacet
facet normal -1.0 3.026479179502162e-17 3.644640207289082e-17
  outer loop
    vertex -5.500000000000001 -4.000000000000059 104.27194000000001
    vertex -5.500000000000001 -6.000000000000038 105.92194000000002
    vertex -5.5 5.999999999999958 105.92194000000002
  endloop
endfacet
facet normal -1.0 3.026479179502162e-17 3.644640207289082e-17
  outer loop
    vertex -5.500000000000001 -4.000000000000059 104.27194000000001
    vertex -5.5 5.999999999999958 105.92194000000002
    vertex -5.500000000000001 -4.000000000000059 100.17194
  endloop
endfacet
facet normal -1.0 3.026479179502162e-17 3.644640207289082e-17
  outer loop
    vertex -5.500000000000001 -4.000000000000059 100.17194
    vertex -5.500000000000001 -6.000000000000045 98.52194
    vertex -5.500000000000001 -6.000000000000045 100.17194
  endloop
endfacet
facet normal -1.0 3.026479179502162e-17 3.644640207289082e-17
  outer loop
    vertex -5.500000000000001 -6.000000000000045 98.52194
    vertex -5.500000000000001 -4.000000000000059 100.17194
    vertex -5.500000000000001 5.999999999999958 98.52194
  endloop
endfacet
facet normal -1.0 3.026479179502162e-17 3.644640207289082e-17
  outer loop
    vertex -5.500000000000001 5.999999999999958 98.52194
    vertex -5.500000000000001 -4.000000000000059 100.17194
    vertex -5.5 5.999999999999958 105.92194000000002
  endloop
endfacet
facet normal 3.6446402072890824e-17 0.0 1.0
  outer loop
    vertex -5.500000000000001 -6.000000000000045 98.52194
    vertex -6.0 5.999999999999958 98.52194
    vertex -6.0 -6.000000000000045 98.52194
  endloop
endfacet
facet normal 3.6446402072890824e-17 0.0 1.0
  outer loop
    vertex -6.0 5.999999999999958 98.52194
    vertex -5.500000000000001 -6.000000000000045 98.52194
    vertex -5.500000000000001 5.999999999999958 98.52194
  endloop
endfacet
facet normal -3.644640207289082e-17 2.1412006719795073e-33 -1.0
  outer loop
    vertex -6.0 5.999999999999958 105.92194000000002
    vertex -5.500000000000001 -6.000000000000038 105.92194000000002
    vertex -6.0 -6.000000000000038 105.92194000000002
  endloop
endfacet
facet normal -3.644640207289082e-17 2.1412006719795073e-33 -1.0
  outer loop
    vertex -5.500000000000001 -6.000000000000038 105.92194000000002
    vertex -6.0 5.999999999999958 105.92194000000002
    vertex -5.5 5.999999999999958 105.92194000000002
  endloop
endfacet
endsolid Arm
